<svg xmlns="http://www.w3.org/2000/svg" width="50" height="43" viewBox="0 0 50 43">
  <defs>
    <style>
      .cls-1 {
        fill: #fff;
        fill-rule: evenodd;
      }
    </style>
  </defs>
  <path id="CART_のコピー" data-name="CART のコピー" class="cls-1" d="M250.041,3117.32a7.441,7.441,0,0,0-.449-2.56h6.095a7.837,7.837,0,1,0,7.375-5.12H245.874a2.045,2.045,0,1,1,0-4.09h17.917a4.677,4.677,0,0,0,4.25-2.67c0.281-.59,5.678-12.68,5.678-12.68a2.556,2.556,0,0,0,.28-1.04,2.069,2.069,0,0,0-2.083-2.04H239.394l-0.874-2.65a3.186,3.186,0,0,0-3.062-2.47H226.6a2.56,2.56,0,1,0,0,5.12h5.468a2.08,2.08,0,0,1,1.98,1.4l4.4,22.08a7.646,7.646,0,0,0-4.031,6.72A7.814,7.814,0,0,0,250.041,3117.32Zm-5.208,0a2.6,2.6,0,1,1-2.6-2.56A2.585,2.585,0,0,1,244.833,3117.32Zm20.833,0a2.6,2.6,0,1,1-2.6-2.56A2.585,2.585,0,0,1,265.666,3117.32Z" transform="translate(-224 -3082)"/>
</svg>
